<svg width="40" height="40" viewBox="0 0 40 40" fill="none" xmlns="http://www.w3.org/2000/svg">
<path d="M20 0C31.046 0 40 8.954 40 20C40 31.046 31.046 40 20 40C8.954 40 0 31.046 0 20C0 8.954 8.954 0 20 0ZM20 37.5C21.304 37.5 23.158 36.378 24.835 33.024C25.483 31.728 26.043 30.202 26.48 28.5H13.52C13.957 30.202 14.517 31.728 15.165 33.024C16.842 36.378 18.695 37.5 20 37.5ZM12.99 26H27.01C27.325 24.137 27.5 22.12 27.5 20C27.5042 18.1589 27.3671 16.3202 27.09 14.5H12.91C12.6329 16.3202 12.4958 18.1589 12.5 20C12.5 22.12 12.675 24.137 12.99 26ZM29.054 28.5C28.283 31.782 27.078 34.577 25.588 36.589C29.7176 35.1925 33.1797 32.309 35.3 28.5H29.054ZM36.444 26C37.1441 24.0771 37.5015 22.0464 37.5 20C37.5 18.079 37.19 16.23 36.618 14.5H29.618C29.8749 16.322 30.0026 18.16 30 20C30 22.09 29.84 24.106 29.542 26H36.444ZM10.458 26C10.151 24.0148 9.99791 22.0088 10 20C10 18.093 10.133 16.247 10.383 14.5H3.382C2.79624 16.2745 2.49847 18.1313 2.5 20C2.5 22.108 2.873 24.129 3.556 26H10.458ZM4.699 28.5C6.81958 32.3092 10.282 35.1927 14.412 36.589C12.922 34.577 11.717 31.782 10.946 28.5H4.699ZM13.396 12H26.604C26.151 10.095 25.546 8.398 24.835 6.976C23.158 3.622 21.305 2.5 20 2.5C18.696 2.5 16.842 3.622 15.165 6.976C14.454 8.398 13.849 10.096 13.396 12ZM29.168 12H35.568C33.4821 7.95028 29.9033 4.87027 25.588 3.411C27.153 5.525 28.404 8.501 29.168 12ZM14.412 3.411C10.0967 4.87027 6.5179 7.95028 4.432 12H10.832C11.596 8.501 12.847 5.525 14.412 3.411Z" fill="#0A0D12"/>
</svg>
