<svg width="128" height="48" viewBox="0 0 128 48" fill="none" xmlns="http://www.w3.org/2000/svg">
<path fill-rule="evenodd" clip-rule="evenodd" d="M34.0162 10.106L23.162 37.9554H12.9669L17.5094 26.4134H17.3056C13.5581 32.7983 7.96678 37.0016 0 37.9554V26.5732C0 26.5732 5.09653 26.1781 8.09264 22.0437H0V10.1062H9.09526V19.9246L9.2994 19.9235L13.016 10.1062H19.8946V19.8624L20.0987 19.8619L23.9547 10.106H34.0162Z" fill="#146EF5"/>
<path d="M93.2062 34.8814H96.1353V12.8135H93.2062V34.8814Z" fill="black"/>
<path fill-rule="evenodd" clip-rule="evenodd" d="M77.0579 34.656C77.6946 35.0034 78.3419 35.177 79 35.177C80.0873 35.177 81.06 34.8297 81.9185 34.135C82.7769 33.4402 83.4421 32.4825 83.9142 31.2621C84.3864 30.0321 84.6224 28.638 84.6224 27.0794C84.6224 25.5209 84.3792 24.1267 83.8928 22.8968C83.4064 21.6669 82.7304 20.714 81.8648 20.038C80.9994 19.3526 80.0158 19.0146 78.9141 19.024C78.2132 19.024 77.5408 19.2024 76.897 19.5592C76.2531 19.9159 75.7167 20.4229 75.2874 21.0801C75.2543 21.1302 75.2221 21.1807 75.1909 21.2317V12.8276H72.2509V34.8814H75.1695L75.1636 32.8211C75.2391 32.9426 75.3197 33.0612 75.4055 33.1772C75.8705 33.8064 76.4213 34.2993 77.0579 34.656ZM80.0622 31.093C79.583 31.4779 79.0357 31.6705 78.4206 31.6705C77.8125 31.6705 77.2546 31.4733 76.7467 31.0789C76.2388 30.6752 75.8347 30.126 75.5342 29.4313C75.241 28.7365 75.0944 27.9479 75.0944 27.0654C75.0872 26.1828 75.2303 25.3942 75.5235 24.6994C75.824 23.9953 76.2281 23.4507 76.736 23.0658C77.2439 22.6715 77.8054 22.479 78.4206 22.4884C79.0357 22.479 79.583 22.6668 80.0622 23.0517C80.5486 23.4273 80.9206 23.9671 81.1781 24.6712C81.4428 25.366 81.5751 26.1641 81.5751 27.0654C81.5751 27.9666 81.4428 28.7647 81.1781 29.4594C80.9206 30.1542 80.5486 30.6987 80.0622 31.093Z" fill="black"/>
<path d="M38.2617 14.1514H41.6094L44.6041 28.5056L47.7898 14.1514H50.5795L54.0346 28.2175L56.9101 14.1514H59.9788L55.4509 34.8814H52.5645L49.0513 21.1398L45.8262 34.8814H42.9077L38.2617 14.1514Z" fill="black"/>
<path fill-rule="evenodd" clip-rule="evenodd" d="M64.9225 35.2475C63.7565 35.2568 62.705 34.9188 61.7679 34.2335C60.838 33.5388 60.1048 32.5764 59.5683 31.3466C59.039 30.1166 58.7743 28.713 58.7743 27.1357C58.7743 25.6055 59.0462 24.2206 59.5898 22.9813C60.1333 21.742 60.8702 20.775 61.8 20.0802C62.73 19.3855 63.7672 19.0381 64.9118 19.0381C66.1993 19.0381 67.326 19.4136 68.2916 20.1647C69.2645 20.9158 69.9905 21.9814 70.4698 23.3615C70.9562 24.7323 71.1314 26.3049 70.9955 28.0792H61.8046C61.8303 28.7862 61.9647 29.4294 62.2079 30.0086C62.4797 30.647 62.8588 31.1447 63.3451 31.5014C63.8315 31.8581 64.3753 32.0365 64.9761 32.0365C65.4339 32.0272 65.8595 31.9239 66.2529 31.7268C66.6464 31.5203 66.979 31.2432 67.2509 30.8959C67.5298 30.5485 67.7265 30.1542 67.8409 29.713H70.9097C70.7238 30.7926 70.3518 31.755 69.7938 32.5999C69.2358 33.4354 68.5348 34.0879 67.6908 34.5574C66.8466 35.0268 65.9239 35.2568 64.9225 35.2475ZM62.2186 24.2065C62.0471 24.5989 61.9284 25.0214 61.8623 25.474H67.9547C67.9105 24.9021 67.776 24.3811 67.5512 23.9108C67.2938 23.3569 66.9433 22.9297 66.4997 22.6292C66.0562 22.3194 65.5555 22.1645 64.9976 22.1645C64.4039 22.1645 63.8638 22.3429 63.3774 22.6996C62.891 23.0564 62.5046 23.5587 62.2186 24.2065Z" fill="black"/>
<path d="M86.779 19.362C86.779 18.1039 86.9973 16.9867 87.4336 16.0103C87.87 15.0245 88.4816 14.2593 89.2684 13.7148C90.0623 13.1608 90.9888 12.8745 92.0474 12.8557V16.2779C91.5538 16.2872 91.1318 16.4234 90.7813 16.6863C90.438 16.9397 90.1733 17.3106 89.9873 17.7988C89.816 18.2483 89.7236 18.7693 89.7101 19.362H91.9831V22.6151H89.7083V34.8814H86.779V22.6151H84.8906V19.362H86.779Z" fill="black"/>
<path fill-rule="evenodd" clip-rule="evenodd" d="M103.582 35.2194C102.387 35.2194 101.318 34.8766 100.374 34.1913C99.4365 33.4965 98.6998 32.5388 98.1633 31.3184C97.6339 30.0884 97.3692 28.6943 97.3692 27.1357C97.3692 25.5679 97.6339 24.169 98.1633 22.9391C98.6998 21.6998 99.4365 20.7374 100.374 20.0521C101.318 19.3667 102.387 19.024 103.582 19.024C104.784 19.024 105.857 19.3667 106.801 20.0521C107.752 20.7374 108.492 21.6951 109.022 22.925C109.551 24.1549 109.819 25.5585 109.827 27.1357C109.819 28.6943 109.551 30.0884 109.022 31.3184C108.5 32.5388 107.763 33.4965 106.812 34.1913C105.86 34.8766 104.784 35.2194 103.582 35.2194ZM103.582 31.6846C104.211 31.6846 104.769 31.4968 105.256 31.1212C105.742 30.7363 106.118 30.201 106.382 29.5157C106.647 28.821 106.779 28.0277 106.779 27.1357C106.779 26.2345 106.647 25.4364 106.382 24.7417C106.118 24.0469 105.742 23.5118 105.256 23.1362C104.769 22.7513 104.211 22.5588 103.582 22.5588C102.959 22.5588 102.405 22.7513 101.919 23.1362C101.439 23.5118 101.067 24.0469 100.803 24.7417C100.538 25.4364 100.409 26.2345 100.417 27.1357C100.417 28.0277 100.549 28.821 100.814 29.5157C101.085 30.201 101.457 30.7363 101.929 31.1212C102.409 31.4968 102.959 31.6846 103.582 31.6846Z" fill="black"/>
<path d="M112.992 19.362H109.73L113.26 34.8814H116.114L118.436 24.9692L120.943 34.8814H123.754L127.295 19.362H124.345L122.336 29.0218L120.117 19.362H117.262L115.053 29.2347L112.992 19.362Z" fill="black"/>
</svg>
