<svg width="128" height="48" viewBox="0 0 128 48" fill="none" xmlns="http://www.w3.org/2000/svg">
<g clip-path="url(#clip0_31486_13140)">
<path fill-rule="evenodd" clip-rule="evenodd" d="M34.0162 10.1057L23.162 37.9552H12.9669L17.5094 26.4131H17.3056C13.5581 32.7981 7.96678 37.0013 0 37.9552V26.5729C0 26.5729 5.09653 26.1779 8.09264 22.0435H0V10.1059H9.09526V19.9244L9.2994 19.9233L13.016 10.1059H19.8946V19.8621L20.0987 19.8617L23.9547 10.1057H34.0162Z" fill="white"/>
<path d="M93.2043 34.8812H96.1335V12.8133H93.2043V34.8812Z" fill="white"/>
<path fill-rule="evenodd" clip-rule="evenodd" d="M77.056 34.6558C77.6927 35.0033 78.34 35.1768 78.9982 35.1768C80.0855 35.1768 81.0582 34.8295 81.9166 34.1348C82.775 33.4401 83.4402 32.4823 83.9124 31.2619C84.3846 30.032 84.6205 28.6378 84.6205 27.0793C84.6205 25.5207 84.3774 24.1266 83.8909 22.8966C83.4045 21.6667 82.7286 20.7138 81.863 20.0378C80.9975 19.3525 80.0139 19.0145 78.9123 19.0239C78.2113 19.0239 77.5389 19.2022 76.8951 19.559C76.2513 19.9158 75.7149 20.4228 75.2856 21.08C75.2525 21.13 75.2203 21.1805 75.1891 21.2316V12.8274H72.2491V34.8812H75.1676L75.1617 32.821C75.2373 32.9424 75.3179 33.0611 75.4037 33.1771C75.8687 33.8062 76.4194 34.2991 77.056 34.6558ZM80.0604 31.0929C79.5811 31.4777 79.0339 31.6703 78.4188 31.6703C77.8107 31.6703 77.2527 31.4731 76.7449 31.0788C76.237 30.675 75.8328 30.1259 75.5324 29.4311C75.2391 28.7364 75.0925 27.9477 75.0925 27.0652C75.0853 26.1827 75.2284 25.394 75.5217 24.6993C75.8221 23.9951 76.2263 23.4506 76.7341 23.0656C77.242 22.6713 77.8035 22.4789 78.4188 22.4882C79.0339 22.4789 79.5811 22.6666 80.0604 23.0516C80.5468 23.4271 80.9188 23.9669 81.1763 24.6711C81.4409 25.3658 81.5733 26.1639 81.5733 27.0652C81.5733 27.9665 81.4409 28.7645 81.1763 29.4593C80.9188 30.154 80.5468 30.6985 80.0604 31.0929Z" fill="white"/>
<path d="M38.2599 14.1512H41.6076L44.6022 28.5054L47.788 14.1512H50.5777L54.0328 28.2174L56.9083 14.1512H59.977L55.449 34.8812H52.5626L49.0495 21.1397L45.8244 34.8812H42.9058L38.2599 14.1512Z" fill="white"/>
<path fill-rule="evenodd" clip-rule="evenodd" d="M64.9206 35.2474C63.7546 35.2567 62.7032 34.9186 61.766 34.2333C60.8362 33.5386 60.103 32.5762 59.5665 31.3464C59.0371 30.1164 58.7724 28.7129 58.7724 27.1356C58.7724 25.6053 59.0443 24.2204 59.5879 22.9811C60.1315 21.7419 60.8684 20.7748 61.7982 20.0801C62.7281 19.3853 63.7653 19.0379 64.9099 19.0379C66.1975 19.0379 67.3241 19.4135 68.2898 20.1646C69.2626 20.9156 69.9887 21.9813 70.4679 23.3614C70.9543 24.7321 71.1296 26.3047 70.9937 28.0791H61.8028C61.8285 28.786 61.9629 29.4293 62.206 30.0084C62.4778 30.6469 62.857 31.1445 63.3433 31.5013C63.8297 31.858 64.3734 32.0364 64.9743 32.0364C65.4321 32.0271 65.8577 31.9237 66.2511 31.7267C66.6445 31.5201 66.9771 31.2431 67.249 30.8958C67.5279 30.5483 67.7246 30.154 67.8391 29.7128H70.9079C70.7219 30.7924 70.3499 31.7548 69.792 32.5998C69.234 33.4353 68.5329 34.0878 67.6889 34.5573C66.8448 35.0266 65.922 35.2567 64.9206 35.2474ZM62.2167 24.2063C62.0452 24.5987 61.9266 25.0212 61.8604 25.4738H67.9528C67.9086 24.902 67.7741 24.3809 67.5494 23.9106C67.292 23.3567 66.9414 22.9295 66.4979 22.6291C66.0544 22.3193 65.5537 22.1643 64.9957 22.1643C64.402 22.1643 63.862 22.3427 63.3756 22.6995C62.8892 23.0563 62.5028 23.5585 62.2167 24.2063Z" fill="white"/>
<path d="M86.7772 19.3618C86.7772 18.1038 86.9955 16.9865 87.4318 16.0101C87.8681 15.0243 88.4797 14.2592 89.2666 13.7146C90.0605 13.1607 90.9869 12.8743 92.0456 12.8556V16.2777C91.552 16.2871 91.13 16.4232 90.7795 16.6861C90.4361 16.9396 90.1714 17.3104 89.9854 17.7986C89.8142 18.2481 89.7218 18.7692 89.7082 19.3618H91.9812V22.615H89.7065V34.8812H86.7772V22.615H84.8888V19.3618H86.7772Z" fill="white"/>
<path fill-rule="evenodd" clip-rule="evenodd" d="M103.58 35.2192C102.385 35.2192 101.316 34.8764 100.372 34.1911C99.4347 33.4964 98.6979 32.5386 98.1614 31.3183C97.6321 30.0883 97.3674 28.6941 97.3674 27.1356C97.3674 25.5677 97.6321 24.1688 98.1614 22.9389C98.6979 21.6996 99.4347 20.7373 100.372 20.0519C101.316 19.3665 102.385 19.0239 103.58 19.0239C104.782 19.0239 105.855 19.3665 106.799 20.0519C107.75 20.7373 108.491 21.6949 109.02 22.9248C109.549 24.1547 109.818 25.5583 109.825 27.1356C109.818 28.6941 109.549 30.0883 109.02 31.3183C108.498 32.5386 107.761 33.4964 106.81 34.1911C105.858 34.8764 104.782 35.2192 103.58 35.2192ZM103.58 31.6844C104.209 31.6844 104.767 31.4966 105.254 31.121C105.74 30.7361 106.116 30.2009 106.38 29.5156C106.645 28.8208 106.777 28.0276 106.777 27.1356C106.777 26.2343 106.645 25.4363 106.38 24.7415C106.116 24.0467 105.74 23.5116 105.254 23.136C104.767 22.7511 104.209 22.5587 103.58 22.5587C102.958 22.5587 102.403 22.7511 101.917 23.136C101.438 23.5116 101.066 24.0467 100.801 24.7415C100.536 25.4363 100.408 26.2343 100.415 27.1356C100.415 28.0276 100.547 28.8208 100.812 29.5156C101.084 30.2009 101.455 30.7361 101.928 31.121C102.407 31.4966 102.958 31.6844 103.58 31.6844Z" fill="white"/>
<path d="M112.99 19.3618H109.728L113.258 34.8812H116.112L118.434 24.969L120.941 34.8812H123.752L127.293 19.3618H124.343L122.334 29.0216L120.115 19.3618H117.261L115.052 29.2345L112.99 19.3618Z" fill="white"/>
</g>
<defs>
<clipPath id="clip0_31486_13140">
<rect width="128" height="48" fill="white"/>
</clipPath>
</defs>
</svg>
